HIERARCHY
ROOT Hips
{
	OFFSET 0.000000 0.000000 0.000000 
	CHANNELS 6 Xposition Yposition Zposition Zrotation Yrotation Xrotation
	JOINT LeftUpLeg
	{
		OFFSET 1.363060 -1.794630 0.839290 
		CHANNELS 3 Zrotation Yrotation Xrotation
		JOINT LeftLeg
		{
			OFFSET 2.448110 -6.726130 0.000000 
			CHANNELS 3 Zrotation Yrotation Xrotation
			JOINT LeftFoot
			{
				OFFSET 2.562200 -7.039590 0.000000 
				CHANNELS 3 Zrotation Yrotation Xrotation
				JOINT LeftToeBase
				{
					OFFSET 0.157640 -0.433110 2.322550 
					CHANNELS 3 Zrotation Yrotation Xrotation
					End Site
					{
						OFFSET 0.000000 0.000000 0.000000 
					}
				}
			}
		}
	}
	JOINT RightUpLeg
	{
		OFFSET -1.305520 -1.794630 0.839290 
		CHANNELS 3 Zrotation Yrotation Xrotation
		JOINT RightLeg
		{
			OFFSET -2.542530 -6.985550 0.000000 
			CHANNELS 3 Zrotation Yrotation Xrotation
			JOINT RightFoot
			{
				OFFSET -2.568260 -7.056230 0.000000 
				CHANNELS 3 Zrotation Yrotation Xrotation
				JOINT RightToeBase
				{
					OFFSET -0.164730 -0.452590 2.363150 
					CHANNELS 3 Zrotation Yrotation Xrotation
					End Site
					{
						OFFSET 0.000000 0.000000 0.000000 
					}
				}
			}
		}
	}
	JOINT Spine
	{
		OFFSET 0.028270 2.035590 -0.193380 
		CHANNELS 3 Zrotation Yrotation Xrotation
		JOINT Spine1
		{
			OFFSET 0.056720 2.048850 -0.042750 
			CHANNELS 3 Zrotation Yrotation Xrotation
			JOINT Neck1
			{
				OFFSET -0.054170 1.746240 0.172020 
				CHANNELS 3 Zrotation Yrotation Xrotation
				JOINT Head
				{
					OFFSET 0.104070 1.761360 -0.123970 
					CHANNELS 3 Zrotation Yrotation Xrotation
					End Site
					{
						OFFSET 0.000000 0.000000 0.000000 
					}
				}
			}
			JOINT LeftArm
			{
				OFFSET 3.362410 1.200890 -0.311210 
				CHANNELS 3 Zrotation Yrotation Xrotation
				JOINT LeftForeArm
				{
					OFFSET 4.983000 -0.000000 -0.000000 
					CHANNELS 3 Zrotation Yrotation Xrotation
					JOINT LeftHand
					{
						OFFSET 3.483560 -0.000000 -0.000000 
						CHANNELS 3 Zrotation Yrotation Xrotation
						JOINT LeftHandIndex1
						{
							OFFSET 0.715260 -0.000000 -0.000000 
							CHANNELS 3 Zrotation Yrotation Xrotation
							End Site
							{
								OFFSET 0.000000 0.000000 0.000000 
							}
						}
					}
				}
			}
			JOINT RightArm
			{
				OFFSET -3.136600 1.374050 -0.404650 
				CHANNELS 3 Zrotation Yrotation Xrotation
				JOINT RightForeArm
				{
					OFFSET -5.241900 -0.000000 -0.000000 
					CHANNELS 3 Zrotation Yrotation Xrotation
					JOINT RightHand
					{
						OFFSET -3.444170 -0.000000 -0.000000 
						CHANNELS 3 Zrotation Yrotation Xrotation
						JOINT RightHandIndex1
						{
							OFFSET -0.622530 -0.000000 -0.000000 
							CHANNELS 3 Zrotation Yrotation Xrotation
							End Site
							{
								OFFSET 0.000000 0.000000 0.000000 
							}
						}
					}
				}
			}
		}
	}
}
MOTION
Frames: 10
Frame Time: 0.041667
3.056160 18.021454 9.334904 -174.069022 4.772491 -171.214928 -5.087676 3.379273 -26.475737 0.685413 10.291597 26.947392 -0.618363 5.390227 8.557667 0.031800 1.150900 3.164200 15.563336 1.309611 -16.084156 -2.000730 -12.525486 34.237537 -1.376100 3.346102 2.772864 -0.008000 0.577000 -1.585500 4.179701 3.137053 0.239174 -2.752609 1.588623 -8.931220 12.042607 -2.814848 22.877747 1.908900 0.188600 12.378300 -81.477063 2.285208 48.721615 19.837836 -28.245771 -6.761608 -1.304882 -2.049115 -12.573144 -7.125000 0.000000 0.000000 86.896489 -19.147708 19.763087 -36.052986 45.135262 -14.509574 0.555337 -0.788628 -28.559071 7.125000 0.000000 0.000000 
2.995023 18.031509 9.302659 -174.146846 5.223268 -171.056899 -5.299357 3.195214 -26.317821 0.663394 10.266667 26.826794 -0.822309 6.063383 8.227643 0.030700 1.130700 3.108400 15.180063 0.985770 -16.496691 -2.065441 -12.591449 34.500018 -1.488317 3.858342 3.258741 -0.010000 0.647100 -1.778300 3.998749 3.129076 0.156355 -2.689477 1.583927 -8.982621 11.963807 -2.672220 22.676898 1.904900 0.233600 12.302100 -79.916428 3.213102 52.748552 22.662396 -31.522279 -8.637215 -1.124727 -1.899798 -14.191250 -7.125000 0.000000 0.000000 86.224069 -19.985218 21.689396 -38.823494 46.876766 -16.237888 0.520446 -0.742737 -28.513572 7.125000 0.000000 0.000000 
2.955729 18.040292 9.277927 -174.127615 5.445220 -170.843119 -5.480877 3.574309 -26.532925 0.650653 10.238720 26.780917 -0.761955 5.849936 8.262803 0.029600 1.110200 3.052100 15.046582 0.668617 -16.931256 -2.122329 -12.654218 34.738128 -1.543694 4.130555 3.681895 -0.002800 0.343900 -0.945000 3.925968 3.082170 0.033644 -2.514885 1.571907 -9.061257 11.927546 -2.609520 22.504359 1.908000 0.246700 12.235300 -78.297440 3.970229 56.436724 25.910082 -34.869187 -10.929011 -0.928772 -1.785883 -14.782251 -7.125000 0.000000 0.000000 86.217109 -20.796795 23.117743 -41.923995 48.660310 -18.263379 0.468582 -0.715857 -27.932124 7.125000 0.000000 0.000000 
2.907189 18.049191 9.249959 -174.185234 5.818795 -170.626153 -5.721346 3.716757 -26.646851 0.641871 10.231393 26.754344 -0.819277 6.018036 8.082371 0.038600 1.267700 3.485800 14.780992 0.442590 -17.336460 -2.179610 -12.709614 34.957666 -1.574420 4.276959 3.985653 -0.002900 0.347200 -0.954100 3.829182 3.014533 -0.049519 -2.289971 1.550547 -9.067103 11.833619 -2.457520 22.379891 1.907400 0.297700 12.191100 -76.738186 4.566003 59.665685 29.575124 -38.161794 -13.675065 -0.755145 -1.594869 -15.121865 -7.125000 0.000000 0.000000 83.690286 -21.219375 26.715144 -45.143219 50.356559 -20.683651 0.404731 -0.826147 -29.668050 7.125000 0.000000 0.000000 
2.867317 18.051734 9.227769 -174.052397 6.137789 -170.530651 -5.797820 4.081107 -26.758179 0.655039 10.227043 26.778202 -0.806736 5.964298 8.067791 0.035900 1.222400 3.361000 14.831548 0.152719 -17.605977 -2.238058 -12.779410 35.183436 -1.532807 4.100412 4.000270 -0.003500 0.379600 -1.042900 3.774706 3.052100 -0.102618 -2.195560 1.566210 -9.059784 11.752196 -2.452578 22.363536 1.886900 0.288400 12.182000 -74.950372 4.652950 63.444182 33.712340 -41.368359 -16.925486 -0.533130 -1.510502 -16.482392 -7.125000 0.000000 0.000000 82.581596 -21.617633 29.847768 -49.389877 52.199188 -23.529892 0.385318 -0.648595 -30.360002 7.125000 0.000000 0.000000 
2.824209 18.056588 9.203500 -174.002867 6.473991 -170.379701 -5.942120 4.336408 -26.890037 0.667472 10.235775 26.825184 -0.819990 5.983818 7.956699 0.038600 1.268100 3.486800 14.757421 -0.138395 -17.940595 -2.293194 -12.837512 35.390236 -1.516024 4.031192 4.141461 -0.004700 0.443400 -1.218200 3.708435 3.057611 -0.166686 -2.075673 1.573227 -9.012959 11.282164 -2.043262 22.444612 1.883900 1.137100 12.186300 -73.233734 4.766516 66.267144 38.230807 -44.345427 -20.654067 -0.380817 -1.351987 -16.897369 -7.125000 0.000000 0.000000 81.229725 -21.926371 32.596104 -53.584485 53.772803 -26.606626 0.333707 -0.602854 -30.965129 7.125000 0.000000 0.000000 
2.782835 18.060401 9.180848 -173.947942 6.805476 -170.236376 -6.079799 4.600121 -27.037279 0.685646 10.254267 26.901032 -0.826291 5.978199 7.847517 0.041100 1.308100 3.597000 14.718989 -0.451571 -18.264484 -2.351307 -12.896769 35.597833 -1.469636 3.825644 4.193515 -0.007500 0.559900 -1.538500 3.649467 3.065414 -0.235117 -1.973930 1.577226 -8.998338 11.249116 -2.027038 22.423466 1.882800 1.136400 12.177000 -71.507425 4.694804 68.886840 43.245587 -47.118555 -24.966479 -0.241212 -1.210498 -17.411359 -7.125000 0.000000 0.000000 79.824142 -22.089992 35.405537 -58.183926 55.191854 -30.071190 0.280090 -0.554950 -31.626511 7.125000 0.000000 0.000000 
2.742038 18.063291 9.159698 -173.894300 7.134987 -170.102472 -6.213449 4.843762 -27.174806 0.703339 10.272753 26.973985 -0.837064 5.990604 7.745310 0.044100 1.354700 3.725500 14.702476 -0.797684 -18.588559 -2.416605 -12.962217 35.822439 -1.393186 3.484238 4.154268 -0.012800 0.729500 -2.004800 3.595128 3.082649 -0.302642 -1.887715 1.584488 -8.973983 11.229653 -2.033096 22.443964 1.886100 1.131400 12.182500 -69.780759 4.402613 71.288175 48.706022 -49.628984 -29.842498 -0.116135 -1.075868 -18.077259 -7.125000 0.000000 0.000000 78.368042 -22.071505 38.248783 -63.156426 56.398224 -33.909344 0.225143 -0.504589 -32.337110 7.125000 0.000000 0.000000 
2.702513 18.065602 9.140513 -173.847056 7.449869 -169.980090 -6.344159 5.060001 -27.305314 0.721998 10.294707 27.054135 -0.850300 6.011777 7.644368 0.047100 1.400500 3.851600 14.706641 -1.185938 -18.911059 -2.488861 -13.032699 36.062044 -1.284335 3.002680 4.040723 -0.018600 0.880800 -2.420800 3.548151 3.102657 -0.371642 -1.811488 1.592902 -8.947822 11.218772 -2.056980 22.505760 1.892500 1.123000 12.202500 -68.079115 3.887282 73.413474 54.503341 -51.839911 -35.189896 0.001043 -0.938677 -18.850548 -7.125000 0.000000 0.000000 76.960485 -21.872611 41.055472 -68.419466 57.335015 -38.060575 0.166990 -0.446133 -33.015924 7.125000 0.000000 0.000000 
2.664028 18.067451 9.123293 -173.816961 7.748223 -169.873481 -6.479541 5.236221 -27.418405 0.739523 10.318831 27.135098 -0.868624 6.051483 7.540793 0.051100 1.458400 4.011100 14.719393 -1.622917 -19.228793 -2.570166 -13.109355 36.322043 -1.140537 2.375990 3.854247 -0.024000 0.999900 -2.748500 3.504917 3.120074 -0.440279 -1.739680 1.600167 -8.924567 11.215865 -2.094819 22.606906 1.902900 1.112400 12.236900 -66.422966 3.152612 75.224130 60.519831 -53.759556 -40.876098 0.109127 -0.796673 -19.735881 -7.125000 0.000000 0.000000 75.547224 -21.460132 43.851629 -73.851912 57.963830 -42.458614 0.114451 -0.398860 -33.736329 7.125000 0.000000 0.000000 
